<svg width="22" height="23" viewBox="0 0 22 23" fill="none" xmlns="http://www.w3.org/2000/svg"><path d="M11.044 0a.75.75 0 0 1 .744.648l.006.102v2.689l1.72-1.72a.75.75 0 0 1 .977-.072l.084.073a.75.75 0 0 1 .072.976l-.072.084-2.78 2.78-.001 4.39 3.802-2.194 1.018-3.798a.75.75 0 0 1 1.47.279l-.02.109-.63 2.35 2.329-1.346a.75.75 0 0 1 .834 1.243l-.084.057-2.328 1.344 2.348.63a.75.75 0 0 1 .55.809l-.02.11a.75.75 0 0 1-.81.55l-.108-.02-3.798-1.018-3.803 2.194 3.802 2.196 3.799-1.018a.75.75 0 0 1 .493 1.413l-.105.036-2.35.63 2.33 1.344a.75.75 0 0 1-.659 1.344l-.091-.044-2.328-1.344.628 2.348a.75.75 0 0 1-.425.882l-.105.037a.75.75 0 0 1-.882-.426l-.037-.105-1.017-3.797-3.803-2.197v4.391l2.78 2.78a.75.75 0 0 1-.976 1.134l-.084-.073-1.72-1.72v2.69a.75.75 0 0 1-1.493.102l-.007-.102v-2.688l-1.72 1.718a.75.75 0 0 1-.976.073l-.084-.073a.75.75 0 0 1-.073-.976l.073-.084 2.78-2.78v-4.391l-3.801 2.195-1.018 3.798a.75.75 0 0 1-1.47-.279l.02-.109.63-2.35-2.329 1.346a.75.75 0 0 1-.835-1.243l.085-.057 2.328-1.344-2.348-.63a.75.75 0 0 1-.551-.809l.02-.11a.75.75 0 0 1 .81-.55l.11.02 3.797 1.018 3.802-2.195-3.801-2.195-3.799 1.018a.75.75 0 0 1-.493-1.413l.105-.036 2.35-.63-2.33-1.344a.75.75 0 0 1 .659-1.344l.091.044 2.328 1.344-.628-2.348a.75.75 0 0 1 .425-.882l.105-.037a.75.75 0 0 1 .882.426l.037.105 1.017 3.797 3.802 2.196v-4.39l-2.78-2.78a.75.75 0 0 1 .977-1.134l.084.073 1.72 1.719V.75a.75.75 0 0 1 .75-.75h-.001Z" fill="#6FAFF3"/></svg>