<svg width="24" height="24" viewBox="0 0 24 24" fill="none" xmlns="http://www.w3.org/2000/svg"><g clip-path="url(#a)"><path d="M12 24c6.627 0 12-5.373 12-12S18.627 0 12 0 0 5.373 0 12s5.373 12 12 12Z" fill="#A864D8"/><path fill-rule="evenodd" clip-rule="evenodd" d="M11.946 7.5a4.445 4.445 0 0 1 3.709 6.899l.845.843-1.258 1.258-.843-.845A4.446 4.446 0 1 1 11.946 7.5Zm0 1.778a2.669 2.669 0 1 0 1.15 5.076l-.369-.37 1.258-1.257.369.369a2.669 2.669 0 0 0-2.408-3.818Z" fill="#fff"/></g><defs><clipPath id="a"><path fill="#fff" d="M0 0h24v24H0z"/></clipPath></defs></svg>