<svg width="1050" height="140" viewBox="0 0 1050 140" fill="none" xmlns="http://www.w3.org/2000/svg">
<g clip-path="url(#clip0_61_3755)">
<path d="M525 67C537.703 67 548 56.7025 548 44C548 31.2975 537.703 21 525 21C512.297 21 502 31.2975 502 44C502 56.7025 512.297 67 525 67Z" stroke="#E2E2E2" stroke-width="2"/>
<path fill-rule="evenodd" clip-rule="evenodd" d="M525 33C526.105 33 527 33.8954 527 35V46C527 47.1046 526.105 48 525 48C523.895 48 523 47.1046 523 46V35C523 33.8954 523.895 33 525 33ZM525 51C526.105 51 527 51.8954 527 53C527 54.1046 526.105 55 525 55C523.895 55 523 54.1046 523 53C523 51.8954 523.895 51 525 51Z" fill="#E2E2E2"/>
</g>
<path d="M400.725 94.9834H398.413V113.854H400.725V104.127H403.162V102.19H400.725V94.9834ZM386.062 109.126H386.979C388.343 109.115 389.624 109.094 391.248 108.772L391.061 106.876C390.082 107.074 389.218 107.157 388.374 107.189V98.8158H390.915V96.9413H386.062V109.126ZM391.936 109.126H392.894C395.018 109.115 396.164 109.084 397.559 108.73L397.372 106.835C396.383 107.085 395.477 107.178 394.206 107.199V98.8158H396.997V96.9413H391.936V109.126ZM421.22 103.565H418.533C419.241 100.42 419.21 98.2118 419.221 96.9204V96.129H413.035V97.9827H416.961C416.93 99.2948 416.794 101.149 416.221 103.565H411.014C411.879 100.357 411.879 98.1493 411.889 96.8371V96.129H405.661V97.9827H409.598C409.546 99.2948 409.369 101.128 408.661 103.565H404.058V105.439H421.22V103.565ZM406.203 113.395H419.575V111.542H408.536V107.126H406.203V113.395ZM437.341 95.0459H435.029V109.105H437.341V102.877H439.965V100.961H437.341V95.0459ZM422.511 98.9824H433.675V97.1287H429.26V95.0251H426.948V97.1287H422.511V98.9824ZM423.47 103.356C423.47 105.512 425.354 106.918 428.093 106.918C430.811 106.918 432.686 105.512 432.696 103.356C432.686 101.19 430.811 99.7531 428.093 99.7531C425.354 99.7531 423.47 101.19 423.47 103.356ZM425.282 113.479H438.091V111.604H427.594V108.001H425.282V113.479ZM425.719 103.356C425.709 102.211 426.667 101.544 428.093 101.544C429.52 101.544 430.489 102.211 430.489 103.356C430.489 104.491 429.52 105.137 428.093 105.127C426.667 105.137 425.709 104.491 425.719 103.356ZM452.754 99.1074V98.9199H456.69V97.0871H452.775V94.9626H450.442V97.0871H446.505V98.9199H450.442V99.1074C450.442 101.398 448.89 103.596 445.922 104.502L447.047 106.335C449.265 105.627 450.817 104.179 451.64 102.346C452.483 103.96 454.024 105.241 456.17 105.835L457.232 104.044C454.274 103.231 452.743 101.18 452.754 99.1074ZM448.193 111.938L449.026 113.75C452.025 113.302 454.337 111.854 455.493 109.948C456.628 111.885 458.929 113.291 461.939 113.75L462.856 111.938C459.044 111.406 456.69 109.313 456.711 107.105V106.751H454.316V107.105C454.306 109.209 451.89 111.365 448.193 111.938ZM456.149 102.044H459.44V107.939H461.752V95.0251H459.44V100.149H456.149V102.044ZM485.704 97.0454H479.185V94.9834H476.894V97.0454H470.333V98.9199H485.704V97.0454ZM469.479 109.084H476.894V113.875H479.185V109.084H486.683V107.189H469.479V109.084ZM471.666 102.961C471.666 105.012 474.061 106.147 478.039 106.147C482.017 106.147 484.413 105.012 484.413 102.961C484.413 100.899 482.017 99.7739 478.039 99.7739C474.061 99.7739 471.666 100.899 471.666 102.961ZM474.082 102.961C474.071 102.003 475.436 101.503 478.039 101.503C480.632 101.503 482.007 102.003 482.017 102.961C482.007 103.929 480.632 104.429 478.039 104.419C475.436 104.429 474.071 103.929 474.082 102.961ZM503.637 95.0251H501.304V113.854H503.637V95.0251ZM488.037 108.668L489.245 110.521C495.837 107.387 498.013 102.627 498.013 97.0246H488.995V98.8575H495.66C495.243 103.138 492.973 106.324 488.037 108.668ZM523.528 103.565H506.324V105.314H523.528V103.565ZM508.323 108.063H519.154V109.23H508.344V113.645H522.007V112.042H510.656V110.729H521.445V106.439H508.323V108.063ZM508.448 97.0454H519.091V98.191H508.511V102.502H521.737V100.919H510.802V99.6906H521.403V95.4416H508.448V97.0454ZM545.564 95.0251H543.231V113.854H545.564V95.0251ZM529.964 108.668L531.172 110.521C537.764 107.387 539.94 102.627 539.94 97.0246H530.922V98.8575H537.587C537.17 103.138 534.9 106.324 529.964 108.668ZM563.018 95.0251H560.706V113.875H563.018V104.064H565.913V102.169H563.018V95.0251ZM549.042 109.272H550.604C553.999 109.272 556.53 109.188 559.456 108.688L559.186 106.73C556.603 107.178 554.281 107.324 551.354 107.335V98.6908H557.853V96.8163H549.042V109.272ZM582.388 95.0251H580.097V113.875H582.388V95.0251ZM567.725 98.545H574.244V101.898H567.746V109.417H569.391C572.776 109.428 575.588 109.303 578.785 108.751L578.577 106.855C575.64 107.345 573.088 107.501 570.12 107.522V103.731H576.598V96.6705H567.725V98.545ZM600.509 96.7538H586.929V98.6075H598.176C598.165 100.867 598.165 103.544 597.426 107.21L599.759 107.459C600.488 103.523 600.488 100.909 600.509 98.5659V96.7538ZM585.137 111.417H602.3V109.521H593.76V102.981H591.469V109.521H585.137V111.417ZM610.256 107.272V106.501H608.007V107.272C607.996 109.105 606.82 111.021 604.383 111.875L605.528 113.562C607.267 112.937 608.465 111.76 609.142 110.313C609.735 111.802 610.86 113.073 612.651 113.729C614.359 113.041 615.463 111.729 616.078 110.24C616.734 111.75 617.942 112.948 619.775 113.562L620.899 111.875C618.431 111.094 617.265 109.24 617.275 107.272V106.501H615.005V107.272C614.995 108.699 614.234 110.407 612.589 111.521C610.975 110.48 610.256 108.845 610.256 107.272ZM603.904 100.524C603.904 103.138 606.07 104.991 608.986 104.981C611.891 104.991 614.057 103.138 614.047 100.524C614.057 97.8785 611.891 96.0457 608.986 96.0457C606.07 96.0457 603.904 97.8785 603.904 100.524ZM606.174 100.524C606.163 98.9824 607.34 97.9931 608.986 98.0035C610.6 97.9931 611.777 98.9824 611.777 100.524C611.777 102.065 610.6 103.054 608.986 103.065C607.34 103.054 606.163 102.065 606.174 100.524ZM616.921 105.71H619.254V95.0459H616.921V105.71ZM627.148 96.3997C624.315 96.3997 622.305 98.9824 622.316 103.044C622.305 107.137 624.315 109.709 627.148 109.709C629.762 109.709 631.678 107.47 631.928 103.835H635.5V113.875H637.791V95.0251H635.5V101.961H631.907C631.574 98.5242 629.689 96.3997 627.148 96.3997ZM624.544 103.044C624.534 100.17 625.596 98.4825 627.148 98.4825C628.71 98.4825 629.762 100.17 629.772 103.044C629.762 105.939 628.71 107.616 627.148 107.626C625.596 107.616 624.534 105.939 624.544 103.044ZM657.64 109.667H653.683V104.856C655.141 103.992 656.026 102.669 656.016 101.024C656.026 98.0243 653.068 96.0457 648.996 96.0457C644.945 96.0457 642.009 98.0243 642.019 101.024C642.009 102.69 642.915 104.044 644.414 104.908V109.667H640.436V111.563H657.64V109.667ZM644.289 101.024C644.279 99.0657 646.185 97.8681 648.996 97.8785C651.798 97.8681 653.745 99.0657 653.745 101.024C653.745 102.95 651.798 104.179 648.996 104.169C646.185 104.179 644.279 102.95 644.289 101.024ZM646.705 109.667V105.752C647.414 105.897 648.184 105.981 648.996 105.981C649.83 105.981 650.611 105.897 651.329 105.741V109.667H646.705ZM661.16 112.167C662.024 112.167 662.764 111.438 662.764 110.542C662.764 109.667 662.024 108.949 661.16 108.938C660.264 108.949 659.525 109.667 659.536 110.542C659.525 111.438 660.264 112.167 661.16 112.167Z" fill="#898989"/>
<path d="M1050 139H0V141H1050V139Z" fill="#E1E1E1" mask="url(#path-1-inside-1_61_3755)"/>
<defs>
<clipPath id="clip0_61_3755">
<rect width="48" height="48" fill="white" transform="translate(501 20)"/>
</clipPath>
</defs>
</svg>
