<svg width="103" height="32" viewBox="0 0 103 32" fill="none" xmlns="http://www.w3.org/2000/svg"><g opacity=".5" fill="#000" clip-path="url(#a)"><path d="M21.405 19.76v4.943h-2.401v-13.25h2.384v1.314c.63-.929 1.7-1.507 2.979-1.507 2.384 0 4.556 1.91 4.556 4.927 0 3.016-2.208 4.925-4.539 4.925-1.279-.002-2.348-.475-2.98-1.352Zm5.1-3.593c0-1.49-1.156-2.664-2.611-2.664-1.49 0-2.629 1.194-2.629 2.665 0 1.47 1.137 2.663 2.629 2.663 1.455 0 2.611-1.174 2.611-2.663Zm24.365-4.714h2.416v1.121c.578-.822 1.489-1.314 2.628-1.314 1.422 0 2.384.578 2.893 1.595.595-.982 1.664-1.592 2.961-1.592 2.402 0 3.611 1.472 3.611 3.838v5.816h-2.49v-5.47c0-1.28-.525-2.068-1.751-2.068-1.087 0-1.806.74-1.806 2.226v5.312H56.86v-5.539c0-1.261-.526-1.998-1.7-1.998-1.138 0-1.858.754-1.858 2.28v5.257H50.87v-9.465Zm20.644-.178c-2.02 0-3.688 1.122-4.474 2.768a5.03 5.03 0 0 0-.486 2.175c0 2.752 1.962 4.907 5.012 4.907 1.996 0 3.298-.787 4.239-2.021l-1.979-1.142c-.476.664-1.193 1.08-2.225 1.08-1.402 0-2.401-.772-2.716-1.999h7.456c.04-.272.061-.548.062-.823v-.09c0-2.804-2.052-4.855-4.89-4.855Zm-2.559 3.874c.386-1.104 1.332-1.823 2.559-1.823 1.261 0 2.173.649 2.488 1.823h-5.047Zm8.655-3.697h2.419v1.194c.613-.858 1.592-1.384 2.77-1.384 2.243 0 3.662 1.472 3.662 3.943v5.712h-2.47v-5.345c0-1.349-.65-2.19-1.929-2.19-1.137 0-2.016.841-2.016 2.313v5.222H77.61v-9.465Zm9.495.001h1.752V9.402L91.24 8v3.453h2.488v2.138H91.24v3.891c0 1 .42 1.35 1.034 1.35.332 0 .596-.106.876-.35l1.104 1.892c-.613.455-1.384.719-2.261.719-1.98 0-3.137-.947-3.137-3.526v-3.98h-1.752v-2.134Zm-49.888 1.209c-.648-.876-1.682-1.402-2.927-1.402-2.418 0-4.592 1.91-4.592 4.925 0 3.014 2.226 4.925 4.558 4.925 1.227 0 2.295-.561 2.961-1.49v1.297h2.384v-9.462h-2.384v1.207Zm-2.488 6.17c-1.455 0-2.63-1.175-2.63-2.665s1.175-2.664 2.63-2.664c1.49 0 2.629 1.194 2.629 2.665 0 1.47-1.14 2.663-2.63 2.663Zm12.941-7.379-2.33 6.1-2.455-6.1H40.31l3.803 9.062.05.118-1.535 4.015-.008.02h2.524l5.05-13.215H47.67Zm48.843 6.402c.423.84 1.178 1.276 2.177 1.274.982-.003 1.507-.477 1.506-1.039 0-.682-1.02-.838-2.23-1.08-1.596-.328-3.368-.815-3.374-2.813-.004-1.592 1.535-2.984 3.866-2.972 1.853-.005 3.013.64 3.875 1.737l-2.008 1.167c-.388-.63-.985-.996-1.862-.994-.946.003-1.4.39-1.4.915 0 .596.774.752 2.161 1.046 1.578.312 3.439.85 3.444 2.883.004 1.473-1.308 3.141-4.059 3.131-2.075.006-3.447-.71-4.241-2.008l-.004-.005 2.15-1.242Zm-81.291-2.252a6.368 6.368 0 0 0-6.254-5.628h-.07a6.341 6.341 0 0 0-3.2.86l-.05.028-.041.025C1.966 13.056.667 18.064.667 21.11l2.932-1.693c1.034 1.969 3.016 3.267 5.227 3.29h.07a6.367 6.367 0 0 0 6.326-7.105Z"/></g><defs><clipPath id="a"><path fill="#fff" transform="translate(.667)" d="M0 0h102v32H0z"/></clipPath></defs></svg>