<svg width="40" height="72" viewBox="0 0 40 72" fill="none" xmlns="http://www.w3.org/2000/svg"><g clip-path="url(#a)" stroke="#C4C4C4"><path d="M20 31.5c6.351 0 11.5-5.149 11.5-11.5S26.351 8.5 20 8.5 8.5 13.649 8.5 20 13.649 31.5 20 31.5Z"/><path d="M15 20.667 18.385 24 26 16.5" stroke-width="1.5" stroke-linecap="round" stroke-linejoin="round"/></g><g clip-path="url(#b)"><path d="M20 63.5c6.351 0 11.5-5.149 11.5-11.5S26.351 40.5 20 40.5 8.5 45.649 8.5 52 13.649 63.5 20 63.5Z" fill="#5F0080"/><path d="M15 52.667 18.385 56 26 48.5" stroke="#C4C4C4" stroke-width="1.5" stroke-linecap="round" stroke-linejoin="round"/></g><rect x=".5" y=".5" width="39" height="71" rx="4.5" stroke="#9747FF" stroke-dasharray="10 5"/><defs><clipPath id="a"><path fill="#fff" transform="translate(8 8)" d="M0 0h24v24H0z"/></clipPath><clipPath id="b"><path fill="#fff" transform="translate(8 40)" d="M0 0h24v24H0z"/></clipPath></defs></svg>