<svg width="84" height="24" viewBox="0 0 84 24" fill="none" xmlns="http://www.w3.org/2000/svg"><g clip-path="url(#a)"><path fill-rule="evenodd" clip-rule="evenodd" d="M0 5h16v1.7H0V5Zm0 6.15h16v1.7H0v-1.7Zm0 6.15h16V19H0v-1.7Z" fill="#333"/></g><path d="M35.813 6.656h-6.485v1.407h4.758a11.135 11.135 0 0 1-.352 2.101l-5.14.32.218 1.5 4.399-.414c-.82 1.672-2.281 3.086-4.727 4.29l.953 1.312c5.204-2.586 6.368-6.25 6.375-10.516Zm1.984 12.703h1.734v-7.14h2.094v-1.422h-2.094V5.266h-1.734v14.093Zm10.25-12.468h-5.281v9.28h.922c2.132 0 3.484-.023 5.109-.343l-.156-1.39c-1.383.234-2.54.312-4.22.335v-2.742h3.032v-1.344h-3.031v-2.42h3.625V6.89Zm.094 5h1.75v6.812h1.625V5.547H49.89v4.937h-1.75v1.407Zm4.656 7.5h1.687V5.266h-1.687V19.39Zm14.86-12.828H57.468v1.39h8.437c-.008 1.695-.008 3.703-.562 6.453l1.75.188c.547-2.953.547-4.914.562-6.672v-1.36Zm-11.532 11H69V16.14h-6.406v-4.907h-1.719v4.907h-4.75v1.422ZM81.719 5.265H80v14.14h1.719V5.266Zm-11 2.64h4.89v2.516h-4.875v5.64h1.235c2.539.008 4.648-.085 7.047-.5l-.157-1.421c-2.203.367-4.117.484-6.343.5v-2.844h4.859V6.5h-6.656v1.406Z" fill="#333"/><defs><clipPath id="a"><path fill="#fff" transform="translate(0 5)" d="M0 0h16v14H0z"/></clipPath></defs></svg>