<svg width="1050" height="140" viewBox="0 0 1050 140" fill="none" xmlns="http://www.w3.org/2000/svg"><g clip-path="url(#a)"><path d="M525 67c12.703 0 23-10.297 23-23s-10.297-23-23-23-23 10.297-23 23 10.297 23 23 23Z" stroke="#E2E2E2" stroke-width="2"/><path fill-rule="evenodd" clip-rule="evenodd" d="M525 33a2 2 0 0 1 2 2v11a2 2 0 1 1-4 0V35a2 2 0 0 1 2-2Zm0 18a2 2 0 1 1 0 4 2 2 0 0 1 0-4Z" fill="#E2E2E2"/></g><path d="M400.725 94.983h-2.312v18.871h2.312v-9.727h2.437v-1.937h-2.437v-7.207Zm-14.663 14.143h.917c1.364-.011 2.645-.032 4.269-.354l-.187-1.896a16.34 16.34 0 0 1-2.687.313v-8.373h2.541V96.94h-4.853v12.185Zm5.874 0h.958c2.124-.011 3.27-.042 4.665-.396l-.187-1.895c-.989.25-1.895.343-3.166.364v-8.383h2.791V96.94h-5.061v12.185Zm29.284-5.561h-2.687c.708-3.145.677-5.353.688-6.645v-.791h-6.186v1.854h3.926c-.031 1.312-.167 3.166-.74 5.582h-5.207c.865-3.208.865-5.416.875-6.728v-.708h-6.228v1.854h3.937c-.052 1.312-.229 3.145-.937 5.582h-4.603v1.874h17.162v-1.874Zm-15.017 9.83h13.372v-1.853h-11.039v-4.416h-2.333v6.269Zm31.138-18.35h-2.312v14.06h2.312v-6.228h2.624v-1.916h-2.624v-5.915Zm-14.83 3.937h11.164V97.13h-4.415v-2.104h-2.312v2.104h-4.437v1.853Zm.959 4.374c0 2.156 1.884 3.562 4.623 3.562 2.718 0 4.593-1.406 4.603-3.562-.01-2.166-1.885-3.603-4.603-3.603-2.739 0-4.623 1.437-4.623 3.603Zm1.812 10.123h12.809v-1.875h-10.497v-3.603h-2.312v5.478Zm.437-10.123c-.01-1.145.948-1.812 2.374-1.812 1.427 0 2.396.667 2.396 1.812 0 1.135-.969 1.781-2.396 1.771-1.426.01-2.384-.636-2.374-1.771Zm27.035-4.249v-.187h3.936v-1.833h-3.915v-2.124h-2.333v2.124h-3.937v1.833h3.937v.187c0 2.291-1.552 4.489-4.52 5.395l1.125 1.833c2.218-.708 3.77-2.156 4.593-3.989.843 1.614 2.384 2.895 4.53 3.489l1.062-1.791c-2.958-.813-4.489-2.864-4.478-4.937Zm-4.561 12.831.833 1.812c2.999-.448 5.311-1.896 6.467-3.802 1.135 1.937 3.436 3.343 6.446 3.802l.917-1.812c-3.812-.532-6.166-2.625-6.145-4.833v-.354h-2.395v.354c-.01 2.104-2.426 4.26-6.123 4.833Zm7.956-9.894h3.291v5.895h2.312V95.025h-2.312v5.124h-3.291v1.895Zm29.555-4.999h-6.519v-2.062h-2.291v2.062h-6.561v1.875h15.371v-1.875Zm-16.225 12.039h7.415v4.791h2.291v-4.791h7.498v-1.895h-17.204v1.895Zm2.187-6.123c0 2.051 2.395 3.186 6.373 3.186s6.374-1.135 6.374-3.186c0-2.062-2.396-3.187-6.374-3.187-3.978 0-6.373 1.125-6.373 3.187Zm2.416 0c-.011-.958 1.354-1.458 3.957-1.458 2.593 0 3.968.5 3.978 1.458-.01.968-1.385 1.468-3.978 1.458-2.603.01-3.968-.49-3.957-1.458Zm29.555-7.936h-2.333v18.829h2.333V95.025Zm-15.6 13.643 1.208 1.853c6.592-3.134 8.768-7.894 8.768-13.496h-9.018v1.832h6.665c-.417 4.281-2.687 7.467-7.623 9.811Zm35.491-5.103h-17.204v1.749h17.204v-1.749Zm-15.205 4.498h10.831v1.167h-10.81v4.415h13.663v-1.603h-11.351v-1.313h10.789v-4.29h-13.122v1.624Zm.125-11.018h10.643v1.146h-10.58v4.311h13.226v-1.583h-10.935v-1.228h10.601v-4.25h-12.955v1.604Zm37.116-2.02h-2.333v18.829h2.333V95.025Zm-15.6 13.643 1.208 1.853c6.592-3.134 8.768-7.894 8.768-13.496h-9.018v1.832h6.665c-.417 4.281-2.687 7.467-7.623 9.811Zm33.054-13.643h-2.312v18.85h2.312v-9.811h2.895v-1.895h-2.895v-7.144Zm-13.976 14.247h1.562c3.395 0 5.926-.084 8.852-.584l-.27-1.958c-2.583.448-4.905.594-7.832.605v-8.644h6.499v-1.875h-8.811v12.456Zm33.346-14.247h-2.291v18.85h2.291v-18.85Zm-14.663 3.52h6.519v3.353h-6.498v7.519h1.645c3.385.011 6.197-.114 9.394-.666l-.208-1.896c-2.937.49-5.489.646-8.457.667v-3.791h6.478v-7.06h-8.873v1.874Zm32.784-1.791h-13.58v1.853h11.247c-.011 2.26-.011 4.937-.75 8.603l2.333.249c.729-3.936.729-6.55.75-8.893v-1.812Zm-15.372 14.663H602.3v-1.896h-8.54v-6.54h-2.291v6.54h-6.332v1.896Zm25.119-4.145v-.771h-2.249v.771c-.011 1.833-1.187 3.749-3.624 4.603l1.145 1.687c1.739-.625 2.937-1.802 3.614-3.249.593 1.489 1.718 2.76 3.509 3.416 1.708-.688 2.812-2 3.427-3.489.656 1.51 1.864 2.708 3.697 3.322l1.124-1.687c-2.468-.781-3.634-2.635-3.624-4.603v-.771h-2.27v.771c-.01 1.427-.771 3.135-2.416 4.249a4.992 4.992 0 0 1-2.333-4.249Zm-6.352-6.748c0 2.614 2.166 4.467 5.082 4.457 2.905.01 5.071-1.843 5.061-4.457.01-2.645-2.156-4.478-5.061-4.478-2.916 0-5.082 1.832-5.082 4.478Zm2.27 0c-.011-1.542 1.166-2.53 2.812-2.52 1.614-.01 2.791.978 2.791 2.52 0 1.541-1.177 2.53-2.791 2.541-1.646-.011-2.823-1-2.812-2.541Zm10.747 5.186h2.333V95.046h-2.333v10.664Zm10.227-9.31c-2.833 0-4.843 2.582-4.832 6.644-.011 4.093 1.999 6.665 4.832 6.665 2.614 0 4.53-2.239 4.78-5.874h3.572v10.04h2.291v-18.85H635.5v6.936h-3.593c-.333-3.437-2.218-5.561-4.759-5.561Zm-2.604 6.644c-.01-2.874 1.052-4.561 2.604-4.561 1.562 0 2.614 1.687 2.624 4.561-.01 2.895-1.062 4.572-2.624 4.582-1.552-.01-2.614-1.687-2.604-4.582Zm33.096 6.623h-3.957v-4.811c1.458-.864 2.343-2.187 2.333-3.832.01-3-2.948-4.978-7.02-4.978-4.051 0-6.987 1.978-6.977 4.978-.01 1.666.896 3.02 2.395 3.884v4.759h-3.978v1.896h17.204v-1.896Zm-13.351-8.643c-.01-1.958 1.896-3.156 4.707-3.145 2.802-.01 4.749 1.187 4.749 3.145 0 1.926-1.947 3.155-4.749 3.145-2.811.01-4.717-1.219-4.707-3.145Zm2.416 8.643v-3.915c.709.145 1.479.229 2.291.229.834 0 1.615-.084 2.333-.24v3.926h-4.624Zm14.455 2.5c.864 0 1.604-.729 1.604-1.625 0-.875-.74-1.593-1.604-1.604-.896.011-1.635.729-1.624 1.604-.011.896.728 1.625 1.624 1.625Z" fill="#898989"/><path d="M1050 139H0v2h1050v-2Z" fill="#E1E1E1" mask="url(#path-1-inside-1_61_3755)"/><defs><clipPath id="a"><path fill="#fff" transform="translate(501 20)" d="M0 0h48v48H0z"/></clipPath></defs></svg>