<svg width="45" height="45" viewBox="0 0 45 45" fill="none" xmlns="http://www.w3.org/2000/svg"><g clip-path="url(#a)"><path opacity=".5" d="M22.5 45C34.926 45 45 34.926 45 22.5S34.926 0 22.5 0 0 10.074 0 22.5 10.074 45 22.5 45Z" fill="#2A0038"/><path clip-rule="evenodd" d="m31.49 17.29-2.17 9.23H16.9l-2.16-9.23h16.75Z" stroke="#fff" stroke-width="1.4" stroke-linecap="square" stroke-linejoin="round"/><path d="M27.38 32.94a1.7 1.7 0 1 0 0-3.4 1.7 1.7 0 0 0 0 3.4Zm-8.53 0a1.7 1.7 0 1 0 0-3.4 1.7 1.7 0 0 0 0 3.4Z" stroke="#fff" stroke-width="1.2" stroke-linecap="square" stroke-linejoin="round"/><path d="M11.03 14.38h3.02l1.41 5.98" stroke="#fff" stroke-width="1.4" stroke-linecap="square" stroke-linejoin="round"/></g><defs><clipPath id="a"><path fill="#fff" d="M0 0h45v45H0z"/></clipPath></defs></svg>