<svg width="12" height="14" viewBox="0 0 12 14" fill="none" xmlns="http://www.w3.org/2000/svg"><g clip-path="url(#a)" fill-rule="evenodd" clip-rule="evenodd" fill="#B5B5B5"><path d="M11.043 12.575a.259.259 0 0 1-.258.257H1.214a.26.26 0 0 1-.258-.257V5.42a.26.26 0 0 1 .258-.258h9.57a.26.26 0 0 1 .26.258v7.155h-.001ZM3.685 3.237a2.283 2.283 0 0 1 3.893-1.612c.428.428.668 1.007.669 1.612v.968H3.685v-.968Zm7.1.968h-1.58v-.968A3.241 3.241 0 0 0 5.965 0 3.24 3.24 0 0 0 2.73 3.237v.968H1.214C.544 4.205 0 4.75 0 5.42v7.155c0 .669.545 1.214 1.214 1.214h9.57c.671 0 1.216-.545 1.216-1.214V5.42c0-.67-.545-1.215-1.215-1.215Z"/><path d="M5 8.2c0 .343.184.632.448.812v1.33h1.103v-1.33A.986.986 0 0 0 7 8.2a1 1 0 0 0-2 0Z"/></g><defs><clipPath id="a"><path fill="#fff" d="M0 0h12v14H0z"/></clipPath></defs></svg>