<svg width="60" height="60" viewBox="0 0 60 60" fill="none" xmlns="http://www.w3.org/2000/svg"><g filter="url(#a)"><path d="M30 55c13.807 0 25-11.193 25-25S43.807 5 30 5 5 16.193 5 30s11.193 25 25 25Z" fill="#000"/></g><path d="M30 55c13.807 0 25-11.193 25-25S43.807 5 30 5 5 16.193 5 30s11.193 25 25 25Z" fill="#fff"/><path d="M27.285 38.699a1 1 0 0 0 1.319.098l.095-.082 8-7.817a1 1 0 0 0 .108-1.306l-.08-.096-7.723-8.182a1 1 0 0 0-1.535 1.276l.08.096 7.049 7.469-7.297 7.13a1 1 0 0 0-.098 1.319l.082.095Z" fill="#333"/><defs><filter id="a" x="1" y="1" width="58" height="59" filterUnits="userSpaceOnUse" color-interpolation-filters="sRGB"><feFlood flood-opacity="0" result="BackgroundImageFix"/><feColorMatrix in="SourceAlpha" values="0 0 0 0 0 0 0 0 0 0 0 0 0 0 0 0 0 0 127 0" result="hardAlpha"/><feOffset/><feGaussianBlur stdDeviation="2"/><feColorMatrix values="0 0 0 0 0 0 0 0 0 0 0 0 0 0 0 0 0 0 0.08 0"/><feBlend in2="BackgroundImageFix" result="effect1_dropShadow_806_45785"/><feColorMatrix in="SourceAlpha" values="0 0 0 0 0 0 0 0 0 0 0 0 0 0 0 0 0 0 127 0" result="hardAlpha"/><feOffset dy="1"/><feGaussianBlur stdDeviation="2"/><feColorMatrix values="0 0 0 0 0 0 0 0 0 0 0 0 0 0 0 0 0 0 0.03 0"/><feBlend in2="effect1_dropShadow_806_45785" result="effect2_dropShadow_806_45785"/><feColorMatrix in="SourceAlpha" values="0 0 0 0 0 0 0 0 0 0 0 0 0 0 0 0 0 0 127 0" result="hardAlpha"/><feOffset/><feGaussianBlur stdDeviation="2"/><feColorMatrix values="0 0 0 0 0 0 0 0 0 0 0 0 0 0 0 0 0 0 0.02 0"/><feBlend in2="effect2_dropShadow_806_45785" result="effect3_dropShadow_806_45785"/><feBlend in="SourceGraphic" in2="effect3_dropShadow_806_45785" result="shape"/></filter></defs></svg>