<svg width="35" height="34" viewBox="0 0 35 34" fill="none" xmlns="http://www.w3.org/2000/svg"><g clip-path="url(#a)"><mask id="b" style="mask-type:alpha" maskUnits="userSpaceOnUse" x="0" y="0" width="35" height="34"><path fill-rule="evenodd" clip-rule="evenodd" d="M17.323.02C7.94.02.334 7.626.334 17.01.333 26.394 7.94 34 17.323 34c9.384 0 16.99-7.606 16.99-16.99 0-9.384-7.606-16.99-16.99-16.99Z" fill="#fff"/></mask><g mask="url(#b)"><path fill-rule="evenodd" clip-rule="evenodd" d="M17.323.02C7.94.02.334 7.626.334 17.01.333 26.394 7.94 34 17.323 34c9.384 0 16.99-7.606 16.99-16.99 0-9.384-7.606-16.99-16.99-16.99Z" fill="url(#c)"/></g><path fill-rule="evenodd" clip-rule="evenodd" d="M14.55 25.826c-.183.12-.39.134-.623.133.044-.205.08-.385.124-.563.008-.033.016-.084.069-.084.161 0 .304.002.452.056.153.056.144.347-.022.458Zm-.319 1.063c.04.158.06.322.084.484.015.1.066.14.166.137.133-.003.266 0 .4 0 .18-.002.207-.033.163-.214-.079-.322-.126-.715-.306-.963.034-.017.152-.061.215-.095a.805.805 0 0 0 .44-.855c-.046-.31-.247-.521-.634-.57-.384-.047-.776-.041-1.164-.045-.023 0-.072-.002-.1.02-.03.025-.037.075-.043.102-.182.82-.355 1.64-.53 2.462-.023.104.02.157.127.157.123 0 .246-.005.369.002.123.008.186-.034.209-.163.044-.247.1-.491.16-.735.013-.052.026-.143.06-.142 0 0 .148-.013.186-.008.039.005.135.172.198.426Zm-2.66-.701c.063-.284.123-.555.185-.827.004-.018.022-.048.032-.047.14.007.29-.008.416.04.063.024.114.165.113.253-.003.368-.312.614-.746.581Zm.858-1.37a5.014 5.014 0 0 0-.656-.058h-.462c-.094 0-.153.038-.174.136-.172.817-.346 1.633-.52 2.45-.025.115.022.165.135.164.128 0 .256-.004.384.001.105.004.16-.035.18-.142.03-.166.08-.329.106-.495.01-.06.02-.107.05-.131.03-.025.082-.028.14-.037.247-.034.5-.067.734-.15.446-.159.674-.497.687-.974.01-.418-.192-.685-.604-.765Zm6.015.366c.238-.502.087-.411.658-.421.035-.001.071-.002.107 0 .158.011.197.07.124.207-.433.813-.868 1.625-1.308 2.434a.24.24 0 0 1-.166.102c-.162.014-.327.003-.49.005-.103.001-.143-.048-.154-.148-.086-.804-.174-1.607-.266-2.41-.015-.135.035-.193.167-.191.133.002.266.004.4 0 .139-.004.185.063.187.197l.035 1.732.706-1.507Zm-8.797 1.052c-.154.056-.496.087-.504.07.054-.19.144-.359.344-.431.105-.038.228-.06.293.074.048.098-.01.243-.133.287Zm.393-.825a1.23 1.23 0 0 0-.711-.021c-.72.178-.994.896-.921 1.491.043.354.258.586.613.629.245.03.501.02.745-.018.349-.054.346-.072.408-.42.038-.21.003-.233-.202-.182a5.335 5.335 0 0 1-.646.113c-.105.013-.203-.03-.22-.186l.175-.013c.312-.028.625-.056.897-.232.24-.154.334-.381.3-.66-.031-.264-.199-.418-.438-.501Zm14.077 1.949c-.016.15.051.15.319.149.279-.002.333.028.366-.108l.197-.978 1.134-1.436c.032-.043.064-.106.051-.152-.018-.067-.098-.061-.098-.061h-.543c-.092 0-.102.035-.102.035-.126.17-.633.946-.674 1a18.29 18.29 0 0 1-.205-.858c-.019-.099-.059-.154-.131-.174a8.304 8.304 0 0 0-.545.002c-.105.018-.116.073-.066.217l.495 1.397-.198.966Zm-.878-.366c-.002-.085-.05-.108-.165-.085-.15.029-.3.072-.45.087-.28.027-.385-.072-.392-.356-.01-.36.084-.7.253-1.016.172-.32.445-.424.79-.318.318.098.315.097.388-.237.023-.108-.006-.169-.107-.217-.113-.055-.26-.127-.544-.143-.547 0-.841.206-1.1.6-.27.41-.39.867-.378 1.354.014.578.337.878.918.88.101 0 .204-.012.305-.025.348-.044.394-.053.448-.314a2.81 2.81 0 0 0 .034-.21Zm-6.656-2.23c-.118-.003-.236.003-.353-.003-.14-.009-.197.052-.225.188-.15.731-.308 1.462-.465 2.192a4.804 4.804 0 0 0-.04.204.36.36 0 0 0-.003.046c0 .12.08.12.341.12.067 0 .134-.002.2 0 .09.004.141-.034.16-.125.175-.816.35-1.631.527-2.447.027-.122-.026-.173-.142-.175Zm3.415 1.672.458-.926.042.926h-.5Zm1.274.87c-.017-.174-.04-.346-.062-.519-.074-.614-.151-1.229-.222-1.844-.015-.136-.08-.186-.21-.18a3.752 3.752 0 0 1-.384-.002c-.14-.01-.223.043-.291.17-.414.776-.837 1.548-1.256 2.322l-.06.098c-.061.156.06.158.06.158h.532c.12 0 .136-.067.136-.067l.233-.469h.725c.085 0 .077.03.077.03s-.002.178.008.347c.01.17.09.16.09.16h.438c.187-.003.204-.018.186-.205Z" fill="#C3C3C3"/><path fill-rule="evenodd" clip-rule="evenodd" d="M20.078 29.317a.78.78 0 0 0 .17.015c.267 0 .442-.172.442-.378 0-.2-.144-.264-.316-.264a.792.792 0 0 0-.179.015l-.117.612Zm-.258-.926a2.47 2.47 0 0 1 .541-.055c.185 0 .4.03.55.138.14.096.225.24.225.44a.72.72 0 0 1-.282.584c-.17.133-.41.191-.662.191-.074 0-.135-.006-.181-.012l-.142.747h-.433l.384-2.033Zm1.713-.039h.443l-.32 1.685h.797l-.074.388h-1.24l.394-2.073Zm1.938 0-.227 1.193c-.015.07-.022.154-.022.246 0 .166.102.295.302.295.23 0 .384-.153.458-.538l.228-1.196h.442l-.224 1.178c-.12.627-.397.929-.96.929-.427 0-.689-.219-.689-.662 0-.09.013-.19.031-.289l.219-1.156h.442Zm1.264 1.593a.975.975 0 0 0 .49.133c.172 0 .329-.08.329-.243 0-.117-.09-.194-.28-.293-.222-.12-.43-.28-.43-.55 0-.419.365-.674.817-.674.252 0 .4.056.49.105l-.14.369a.825.825 0 0 0-.386-.092c-.207 0-.314.104-.314.218 0 .12.126.194.301.292.252.133.412.302.412.548 0 .461-.381.698-.842.698-.29 0-.496-.074-.594-.148l.147-.363Zm5.438-10.232c-.202-.61-.649-.87-1.33-.777-.02.003-.037.006-.05.006-.304.013-.61.238-1.142.727-.636-1.94-1.433-4.148-1.982-4.894-.798-1.085-1.672-1.645-2.434-1.926a4.266 4.266 0 1 0-4.036.024c-.737.288-1.607.846-2.479 1.902-.66.8-1.529 3.476-2.136 5.56a14.785 14.785 0 0 1-.872-.135c.763-2.326 1.535-4.555 1.897-5.21.84-1.518 1.975-2.246 1.975-2.246-2.9-3.292-.753-6.298-.33-6.828a3.978 3.978 0 0 0-2.67 7.411c-.688.27-1.498.79-2.311 1.774-.516.624-1.168 2.475-1.698 4.201a20.809 20.809 0 0 1-.797-.325c.422-1.244.825-2.382 1.09-3.02.816-1.95 2.127-2.669 2.127-2.669s-2.913-2.837-.4-6.466a3.816 3.816 0 0 0-2.727 7.07c-.66.258-1.364.757-2.144 1.702-.27.327-.584 1.006-.9 1.824a10.65 10.65 0 0 1-.43-.287.448.448 0 0 0-.526.724c.184.134 4.565 3.28 9.883 3.474 5.128.188 7.622-1.353 8.82-2.093l.168-.104c.078-.047.34-.194.456-.096.119.1.2.453.042.852-.237.599-.972 1.319-1.516 1.643-.344.205-.593.667-.396 1.057.376.743 1.658.205 2.08.028.776-.326 1.639-1.143 2.4-1.865.374-.354.882-.836 1.063-.916l.099-.012c.247-.035.29-.025.356.172.103.308.885 3.094-2.982 6.224a.448.448 0 1 0 .564.696c3.292-2.665 3.818-5.545 3.268-7.201Z" fill="#fff"/></g><defs><radialGradient id="c" cx="0" cy="0" r="1" gradientUnits="userSpaceOnUse" gradientTransform="matrix(31.0439 0 0 31.044 11.444 4.212)"><stop stop-color="#BCBCBA"/><stop offset="1" stop-color="#676766"/></radialGradient><clipPath id="a"><path fill="#fff" transform="translate(.333)" d="M0 0h34v34H0z"/></clipPath></defs></svg>